<svg xmlns="http://www.w3.org/2000/svg" viewBox="0 0 1740.06 190.07"><defs><style>.a{fill:#147917;}</style></defs><title>services-strategy</title><path class="a" d="M1269.44,179.55h-13.21c-4.3,0-8.63.16-12.92,0-3.32-.13-6.64-.5-9.94-.75l-19-1.44-12-.9.79.32-12.47-11.94-19.88-19.05-4.57-4.39c.09.36.19.72.28,1.08l5.28-21.59.75-3.08-1.07.81,24.08-2.4-.79-.33,27,29.55,3.81,4.17-.33-.79-1.23,40.8c-.06,1.93-.12,3.86-.17,5.79.1-.26.21-.53.32-.79l-15.67,19-24.75,30-5.73,6.94.79-.33-24.3,1.15-38.71,1.84-8.84.41.79.33-15-18.9L1068.85,205l-5.43-6.86c.09.36.19.72.28,1.08l3.47-25.61,2.29-16.95c.24-1.74.47-3.47.71-5.21,0-.41.12-.82.16-1.22s-.2.3,0-.08c4.82-8.62,10.14-17,15.21-25.49l3.77-6.32c.41-.69.82-1.38,1.24-2.07.13-.22.6-.75.6-1,0,0-.66.39-.05.15a13.31,13.31,0,0,0,1.38-.76l5.55-3,27.61-15.13.61-.34h-1.12l21.24,12.36,33.85,19.7q3.88,2.25,7.76,4.51l-.55-1q.19,7,.38,14.08.39,14.79.79,29.58.35,13,.7,26.08a40,40,0,0,0,.16,5.8,1.4,1.4,0,0,0,0,.29c-.15-.06.39-.93-.18,0-.74,1.22-1.49,2.44-2.24,3.66l-7.62,12.47c-1.92,3.14-4,6.22-5.78,9.46l-.31.51,1-.55-18-.19-28.61-.28-6.55-.07.79.33-27.16-29-3.78-4,.33.79,1.26-38.88.18-5.57-.55,1L1125.61,139l4.79-2.62-1.34-.18,26.1,26.38,3.64,3.68v-1.57l-24.69,25.81-3.57,3.73,1.35-.18-14.26-7.48.51,1.25q1.56-7.32,3.14-14.65l-1.37.77,11.64,1.64-.67-.51q2.94,4.89,5.87,9.8c.06.09.26.57.37.61s0-.48-.11-.38-.1,1-.12,1.18c-.19,1.79-.37,3.58-.56,5.37q-.78,7.39-1.55,14.81c-.18,1.63-.35,3.26-.52,4.9,0,.11-.1.92,0,.58s0,.13,0,.21l-.15,1-2,13a1.13,1.13,0,0,0,.77,1.37c3.29.56,6.65,1.42,10,1.69,1.2.1,2.61-1.11,3.6-1.68l6.45-3.7,4.21-2.41a1.11,1.11,0,0,0,.51-1.25c-1.43-3.45-2.69-7-4.32-10.38-.62-1.27-2.87-1.4-4.1-1.74l-7.09-1.93a54.64,54.64,0,0,0-7-1.09L1119.62,203l-10.54-1.4.79.32-15-15c-1-1-1.95-2-2.93-2.93a2.33,2.33,0,0,0-1.44-.9c-1.46-.21-3-.15-4.47-.22l-49.53-2.5-15.34-.77c-1.43-.08-1.43,2.15,0,2.22l23.5,1.18,37.31,1.88,8.61.44-.78-.33,10,10,6.34,6.34c.83.83,1.81,2.28,3,2.51,4.42.87,9,1.21,13.49,1.81l16.77,2.24.87.11c.26,0,.4.11,0,0l3.26.89,8.26,2.24-.78-.77,4.35,10.44.51-1.26-13.41,7.68.86-.11-10-1.7.78,1.37c.72-4.66,1.46-9.31,2.16-14,.56-3.65.81-7.36,1.19-11l1.68-16c.14-1.35-.64-2.22-1.32-3.37q-2.24-3.71-4.45-7.43c-.37-.62-.64-1.3-1.38-1.52a23.21,23.21,0,0,0-3.43-.48l-8.09-1.14a1.13,1.13,0,0,0-1.36.78L1116,187.19a1.14,1.14,0,0,0,.51,1.25l14.27,7.49a1.12,1.12,0,0,0,1.34-.17q12.35-12.9,24.7-25.81l3.56-3.73a1.13,1.13,0,0,0,0-1.57l-26.1-26.38-3.64-3.68a1.15,1.15,0,0,0-1.35-.17l-17.4,9.51c-6.77,3.7-13.64,7.29-20.35,11.12-1.36.78-1,2.57-1,4q-.18,5.86-.38,11.75l-.87,26.95c0,1.39-.45,3,.54,4.06,1.9,2.07,3.84,4.09,5.76,6.13l19.61,20.91a72.34,72.34,0,0,0,5.15,5.49c1,.85,3,.46,4.22.48l26.33.26,22.58.23c.74,0,1.31.09,1.84-.55a16.76,16.76,0,0,0,1.29-2.11l6.85-11.2,6.85-11.21c.72-1.17,1.46-2,1.43-3.42q-.26-9.15-.49-18.31-.4-14.9-.8-29.8l-.63-23.34c0-1.16.24-2.81-.14-3.94s-2.6-1.88-3.48-2.39l-20.36-11.84-25.55-14.87-9.45-5.5c-1.45-.84-2.89-1.87-4.41-2.56-1.34-.61-3.46,1.16-4.59,1.78l-11.39,6.24-12.93,7.09c-2.49,1.36-5.13,2.6-7.53,4.12-1.24.79-1.94,2.71-2.67,3.93q-3.32,5.58-6.64,11.14c-4,6.74-8.23,13.4-12.07,20.23a10.16,10.16,0,0,0-.75,3.72q-.78,5.7-1.54,11.38-1.92,14.1-3.82,28.2c-.29,2.13-.7,4.28-.87,6.43-.1,1.21,1.22,2.36,1.93,3.26q7.11,9,14.21,17.92l18.43,23.24,6.82,8.6a33.88,33.88,0,0,0,3.11,3.92c.78.73,2.45.32,3.42.27l9.15-.43,28.61-1.35,25.66-1.22c1.86-.09,3.76-.08,5.62-.27,1.14-.11,1.63-1.08,2.32-1.91l13.83-16.76,19-23c3.88-4.7,7.78-9.4,11.65-14.11.83-1,.72-2,.76-3.24l.33-10.83.85-28.27.12-4a6,6,0,0,0,0-1.75,4.85,4.85,0,0,0-1.21-1.5c-.92-1-1.84-2-2.75-3l-19-20.82q-3.53-3.84-7-7.69a10.08,10.08,0,0,0-1.08-1.18c-.78-.6-2.09-.19-3-.1l-21.87,2.18a1.15,1.15,0,0,0-1.07.82l-3.54,14.47q-1,4.23-2.06,8.45c-.27,1.08-.77,2.11,0,3,2.68,3,5.86,5.61,8.75,8.38l14.9,14.28L1200,176.87c.68.65,1.39,1.61,2.34,1.81a26.05,26.05,0,0,0,3.31.25l35.59,2.68c2.83.22,5.66.16,8.51.16h19.7a1.11,1.11,0,0,0,0-2.22Z" transform="translate(-129.97 -79.96)"/><rect class="a" x="888.22" y="93.75" width="13.89" height="13.89"/><polygon class="a" points="1136.52 107.64 1136.52 93.75 1150.41 100.69 1136.52 107.64"/><path class="a" d="M975.16,179.48q-14.17.35-28.36.77c-3.76.12-7.57.43-11.34.38a67.08,67.08,0,0,1-7.19-.84l-17.44-2.12-11.75-1.44,1.07.82-10.89-26.82c-.51-1.26-1-2.53-1.54-3.8l-.51,1.26,14.17-8.85h-1.12l15,7.29-.51-1.26q-3.42,13.49-6.83,27c-.32,1.28-.64,2.55-1,3.83l.78-.78L876,183.06c-.56.14-1.13.32-1.7.44-.32.06.18,0,.12,0l-.41-.05c-1.86-.3-3.76-.45-5.63-.68l-20.56-2.46-14.73-1.76.79.32-24.8-25.27L805.58,150c.1.36.19.72.29,1.08q3.71-15.74,7.42-31.48l1.05-4.48-.51.66,16.92-12.94,10.38-8c.83-.64,1.78-1.23,2.54-2,.35-.33,0-.06.09-.09.57-.14,1.17-.21,1.75-.31l12.75-2.31L857,89.75l8.85,15.86v-1.12l-11.65,22.1a2.77,2.77,0,0,0-.28.54c-.13.51.06-.37.29-.2a4.34,4.34,0,0,0-.92.45l-5.4,2.63-14.3,7c-1,.49-2,1-3,1.48.49-.21.11-.06-.08,0l-1,.32-9.37,3.09-30.92,10.17-13.78,4.54-4.67,1.53a21.69,21.69,0,0,0-2.62.86,2,2,0,0,1-.34.12l1.26,1.63,10.24-16.41,16.24-26,3.73-6h-1.92L810.55,136l1.92,3.43c.14-.51.27-1,.4-1.52l-14.55,9.81-10.09,6.8c-1.46,1-3.08,1.89-4.45,3-1.68,1.36-3,3.49-4.37,5.14l-8,9.62c-1.78,2.12-3.69,4.19-5.36,6.41-1,1.28-.68,3.68-.8,5.2q-.84,11.07-1.69,22.15a1.06,1.06,0,0,0,.55,1l28.08,12.35c.94.41,2.24,1.28,3.29,1.15,2.08-.25,4.2-.94,6.24-1.39L811,217c1.45-.33,2.75-.28,3.35-1.78,2.06-5.18,4.09-10.36,6.14-15.55a1.13,1.13,0,0,0-.51-1.25l-10.83-8a1.07,1.07,0,0,0-1.12,0l-25.41,18.23-3.63,2.61a1.14,1.14,0,0,0-.51,1.25L791.35,244c.36.86.71,1.73,1.07,2.59a4.33,4.33,0,0,0,.62,1.32c.79.78,2.74,1,3.73,1.32L816,255.35l9.58,3.07c1.62.51,3.26,1.2,4.92,1.57,1,.21,1.94-.35,2.84-.65l7.5-2.55,20.48-7,6.86-2.33a13.15,13.15,0,0,0,1.25-.43c.7-.32.86-.91,1.12-1.57l3.63-8.83,1.95-4.74a14.75,14.75,0,0,0,1-2.37c.16-.71-.26-1.18-.61-1.76l-2.21-3.61-5.41-8.84c-.35-.57-.7-1.15-1.06-1.72a1.14,1.14,0,0,0-1.25-.52l-21.27,7.25-3.05,1a1.17,1.17,0,0,0-.81,1.08q-1.4,13.28-2.78,26.55l-.39,3.73a1.11,1.11,0,0,0,.81,1.07L851,258.7l6.7,2.76a2.82,2.82,0,0,0,2,.37c2.51-.67,5-1.77,7.43-2.64L881.67,254l32.17-11.45,8.83-3.14c.69-.25,1.21-.37,1.55-1.13.5-1.11.83-2.33,1.24-3.48l10.08-28.27.26-.72a1.12,1.12,0,0,0-.29-1.08l-11-10.34L922,192a3.62,3.62,0,0,0-1.5-1.11,21.73,21.73,0,0,0-4.63,0l-17.9.26c-1.21,0-2.36-.22-3.1.9-1.22,1.84-2.36,3.74-3.54,5.61l-8.94,14.17a1.12,1.12,0,0,0,.17,1.34l15,17.49a1.14,1.14,0,0,0,1.57,0l17.1-14.15a1.12,1.12,0,0,0,0-1.57l-16.48-16.7c-.58-.59-1.28-1.62-2.09-1.91a15.55,15.55,0,0,0-2.72-.42l-13.9-2.12-10.82-1.66.67.51L861.45,177l-15.1-25.08q-1.74-2.91-3.5-5.82l-.17,1.34L860.84,126q6.3-7.4,12.58-14.8l4.11-4.82c.22-.27,1.71-1.61,1.67-2,0,.29-.74.14-.31.26a2.07,2.07,0,0,0,.49-.07l1.76-.25,5.33-.75,7.76-1.09-1.08-.29L905,111.6l-.18-1.35-7.26,14.45,1.52-.4-14.59-7-.56,2.07,28.82-.54,4.14-.08-.78-.33L935,140.22l2.71,3.12c-.09-.36-.19-.72-.29-1.08l-6.87,22.79c-.32,1.08-.65,2.17-1,3.25l1.07-.81c-5.87.52-11.76,1.22-17.65,1.55.62,0-.21,0-.45-.1l-2.11-.4-7.55-1.43-47.11-9c-4.19-.79-8.43-1.86-12.66-2.4-1.36-.17-2.87.81-4.1,1.31l-11,4.46-9.77,3.95c-.56.23-1.62.49-2,1a7.88,7.88,0,0,0-.51,2.56q-1,5.86-2,11.73c-.23,1.32-.47,2.64-.68,4a1.82,1.82,0,0,0,.41,1.66c3.92,4.71,8.3,9.11,12.43,13.65L840,215.6l.86,1a1.15,1.15,0,0,0,1.35.17l32.71-15.82,4.64-2.25a1.1,1.1,0,0,0,.51-1.26q-2.8-8.71-5.62-17.43c-.44-1.37-.66-3.74-2.23-4.16-2.94-.79-6-1.38-8.93-2.07l-10.24-2.38a5.78,5.78,0,0,0-2.24-.38,4.57,4.57,0,0,0-1.14.64L833,181.76l-15.31,9.3h1.12L790.11,171,786,168.11V170l31.25-13.39,4.51-1.93-1.52-.4q8,12.22,16,24.44l3.24,4.95a5.69,5.69,0,0,0,.5.77c-.27.06,0-.89-.15-.32a4.36,4.36,0,0,0,0,.72l.09,15.68q0,7.13.08,14.27l.33-.79-19.44,16.76-2.79,2.4,1.35-.17q-10.73-6.24-21.44-12.49l.51.67q-2.88-10.81-5.75-21.61a28.19,28.19,0,0,0-2.13-5.8l-3.12-6.19a38.53,38.53,0,0,0-2.16-4.31c-.6-.87-2-.89-3-1.09l-6.71-1.46c-2.16-.47-4.42-1.25-6.64-1.25H746.12c-7.25,0-14.54-.21-21.79,0H724a1.11,1.11,0,0,0,0,2.22h45.67c.07,0,.31,0,0,0s.2.06.3.08c4.69,1.08,9.41,2,14.11,3.06l-.67-.51c2.08,4.13,4.12,8.27,6.23,12.39.08.17.19.34.26.52-.15-.37-.09-.23,0,0,.15.68.36,1.35.54,2,.68,2.57,1.37,5.15,2,7.73,1.29,4.81,2.42,9.7,3.86,14.47.31,1.05,1.22,1.37,2.12,1.89l6.67,3.88,13.24,7.72a1.16,1.16,0,0,0,1.35-.17q8-6.9,16-13.79l4.17-3.6a18.49,18.49,0,0,0,2-1.73,2.51,2.51,0,0,0,.37-1.84l0-4.21q-.06-12.15-.14-24.31a4.74,4.74,0,0,0-.17-1.95,13.4,13.4,0,0,0-1.11-1.7l-6.1-9.33-12.5-19.12a1.15,1.15,0,0,0-1.52-.4l-31.25,13.39-4.51,1.94c-.84.36-.6,1.49,0,1.91l28.67,20.07,4.12,2.89a1.1,1.1,0,0,0,1.12,0l28.81-17.49,4.1-2.49-.86.11L872,178l-.77-.77Q874.62,187.63,878,198l.51-1.25-32.71,15.83-4.64,2.25,1.35.17-24.17-26.53-3.46-3.8c.1.36.19.72.29,1.08q1.57-9.18,3.17-18.36l-.78.78,23.47-9.5a11.45,11.45,0,0,0,1.62-.66c.54-.33-.07,0-.21-.11.28.26,1.45.28,1.82.34l9.6,1.83,31.48,6,25.13,4.77a14.37,14.37,0,0,0,4.39.3l14.59-1.28,1.23-.11a1.15,1.15,0,0,0,1.07-.82l6-19.78c.47-1.55.93-3.09,1.4-4.63.19-.65.7-1.67.43-2.35a6.6,6.6,0,0,0-1.25-1.54l-2.84-3.27-16.13-18.58a16.78,16.78,0,0,0-1.56-1.8,2,2,0,0,0-1.59-.38l-9.5.18-22.71.43c-1,0-1.6,1.58-.56,2.07l14.59,7a1.13,1.13,0,0,0,1.52-.4l7.26-14.45a1.12,1.12,0,0,0-.17-1.34l-7.18-5.66-4-3.16a2.46,2.46,0,0,0-2.08-.76l-10.54,1.49c-1.41.19-2.86.32-4.25.59a2,2,0,0,0-1.07.56c-1.25,1.24-2.32,2.74-3.46,4.08q-3.32,3.9-6.62,7.79-8.13,9.54-16.24,19.1l-10,11.77a1.15,1.15,0,0,0-.17,1.35l9.45,15.7q7.51,12.51,15,25c1.15,1.9,2.17,4,3.5,5.81.48.65,1,.65,1.7.76l5.12.78,14.87,2.28,5.31.82c.13,0,1,.26,1.09.16-.13.12-.63-.57-.09.06,2.56,3,5.63,5.7,8.4,8.51l8.81,8.94.54.54V215l-17.1,14.15h1.57l-15-17.49.17,1.35L897,192.88l-1,.55,24.33-.35-.79-.33,14.38,13.57c-.09-.36-.19-.72-.29-1.08q-5.07,14.26-10.16,28.52l-1.44,4,.78-.77L889.44,248.9l-22,7.84-6.72,2.39a8.46,8.46,0,0,0-1.58.56l-.26.09c-.06-.3,1,.26.11-.18-3.4-1.69-7.11-2.93-10.62-4.37l-8.65-3.56.82,1.07q1.4-13.28,2.78-26.55l.39-3.73-.82,1.07,21.27-7.25,3.05-1-1.26-.51,9.2,15-.11-.86-6.89,16.77.78-.77L836,256.1l-3.29,1.12a8.59,8.59,0,0,0-1.79.61c-.37.22.74.26,0-.06s-1.38-.44-2.06-.65L809.63,251l-15.51-5,.78.78q-6.28-15.28-12.55-30.57l-1.78-4.32-.51,1.26,25.42-18.24,3.62-2.6H808l10.83,8-.51-1.26-6.33,16,.78-.78-18,4,.85.11L768.93,206.7l-3.74-1.65.55,1,1.77-23.11c.08-1.09.17-2.19.25-3.28-.11.26-.22.53-.32.79l17-20.41c.21-.25.42-.52.64-.76-.42.45.22-.13.4-.25l4.3-2.89L804,146.51l10-6.71a1.13,1.13,0,0,0,.4-1.52l-13.2-23.62-1.92-3.43a1.12,1.12,0,0,0-1.92,0l-10.24,16.41-16.24,26c-1.24,2-2.49,4-3.73,6a1.12,1.12,0,0,0,1.25,1.63l22.89-7.53,34.41-11.32c2-.66,4.14-1.19,6.08-2,4.51-2,8.9-4.35,13.33-6.52l7.75-3.78c.92-.45,2.33-.84,2.94-1.72a48.2,48.2,0,0,0,2.57-4.88l4.49-8.52,3.93-7.47c.57-1.06,1.42-2.06.84-3.24-2.35-4.84-5.28-9.48-7.9-14.18l-.8-1.42a1.13,1.13,0,0,0-1.25-.51l-11.17,2a14,14,0,0,0-3.71.74,10.71,10.71,0,0,0-1.56,1.19l-21.14,16.17L813,113.69c-1.28,1-1.34,3.29-1.69,4.78q-3.13,13.32-6.28,26.65c-.34,1.42-.67,2.84-1,4.27-.18.78-.49,1.5,0,2.22A14.12,14.12,0,0,0,805.4,153l3.39,3.45,19.58,20c1,1,2,2,3,3a3.59,3.59,0,0,0,1.73,1.29c2.07.46,4.31.51,6.41.77l27.88,3.34,4.88.58a15.72,15.72,0,0,0,2.16.26,8.56,8.56,0,0,0,1.72-.39l4.52-1.16,25.8-6.63,1.91-.49a1.1,1.1,0,0,0,.77-.78q3.42-13.48,6.83-27c.32-1.28.65-2.56,1-3.84a1.13,1.13,0,0,0-.51-1.25L903,137.68a13.34,13.34,0,0,0-1.57-.76c-.86-.3-1.32.12-2,.56l-7.2,4.49-6.09,3.8a1.14,1.14,0,0,0-.51,1.25l10.89,26.82,1.55,3.8a1.2,1.2,0,0,0,1.07.82l27.21,3.31c3,.36,6,1,9,1.09s6.14-.22,9.16-.31q15.38-.5,30.76-.85a1.11,1.11,0,0,0,0-2.22Z" transform="translate(-129.97 -79.96)"/><rect class="a" x="591.42" y="93.68" width="13.89" height="13.89"/><polygon class="a" points="841.7 107.58 841.7 93.68 855.6 100.63 841.7 107.58"/><path class="a" d="M687.7,167.24l-19.81.71-11.36.4a20,20,0,0,0-4.07.54c-7.22,1.7-14.54,3.16-21.7,5.12-1.38.38-2.63,1.58-3.79,2.38l-9.71,6.68-18.2,12.53.86-.11-23.67-3.19-3.44-.46.66.51-14.56-23.54-2.07-3.35c0,.29.07.57.11.86l9.63-26.39c.45-1.25.91-2.5,1.37-3.76l-.51.67,22.11-11.45,3.14-1.63h-1.12L614,133.33l3.23,1.38-.55-1q-2.25,19.25-4.48,38.49l-.63,5.38.55-1q-9.82,7.29-19.66,14.57l-13.25,9.83a56,56,0,0,0-5.48,4.08c-2.1,2-3.9,4.48-5.81,6.66q-5.64,6.49-11.3,13L546.35,236.6l-2.76,3.16a1.87,1.87,0,0,0-.56,1.94c2.55,9,5.7,17.83,8.54,26.73l.25.79a1.14,1.14,0,0,0,1.07.82l18.54-.34c2.54,0,5.19.13,7.72-.13,1.45-.15,3-1.22,4.3-1.82L604,258.19a20.13,20.13,0,0,0,4.18-2.08c2.66-2.11,5.22-4.38,7.83-6.56a21.12,21.12,0,0,0,2.8-2.35c.69-.85.51-2.75.6-3.76.33-3.49.65-7,1-10.46a1.11,1.11,0,0,0-.81-1.07l-11.21-3.77-6-2a3,3,0,0,0-1.82-.17c-7.66,1.79-15.26,3.91-22.88,5.86l-26.5,6.79c-5.1,1.31-10.06,3.21-15.05,4.87l-15.42,5.14c-3.26,1.09-6.72,2-9.88,3.3-.16.07-.34.11-.5.17l1.08.28L478.8,226.43l-4.62-3.66.33.78q-.5-11-1-22-.78-17.44-1.55-34.87l-.36-8.07-.33.79q10.18-10.8,20.36-21.59l23.78-25.23c.07-.07.33-.26.35-.37s-.36.16-.31.19,1.13-.17,1.33-.19l2.57-.38,9.4-1.38-1.26-.51,10.36,16.11a1.52,1.52,0,0,0,.24.38c.42.32-.69.07,0-.39-.06,0,0,.52,0,.61l-.18,3.95-.57,12.28q-.21,4.37-.41,8.72c.11-.26.22-.52.32-.78L519,167.63l1.34-.17-23.4-17.32-3.27-2.43.51,1.26L504.79,120l1.51-4.12-.51.67L528,105.41c3.3-1.66,6.76-3.16,10-5,.7-.41-.14.12-.18,0a2,2,0,0,0,.43,0c.8.17,1.67.2,2.48.3l25,3,32.79,3.93L611,109.15a51.23,51.23,0,0,0,6.28.75c.1,0,.2,0,.3,0l-1-.55,8.88,15.93,14.24,25.57,3.27,5.87c0-.29-.08-.57-.11-.86q-2.2,15.48-4.4,30.95l-.43,3c0,.26-.35,1.28-.21,1.52s.14-.41.24-.35-.34.3-.37.32c-.55.41-1,.92-1.57,1.38l-13.74,12.07-10.85,9.55,1.08-.29-29.41-7.25-4.23-1c.28.35.55.71.82,1.07l-3.28-29.3-.48-4.23-.55,1L588.92,165l-.85.11,15,5.28-.82-1.07q-.15,10.23-.32,20.46l.55-1-15.34,10.89a16.58,16.58,0,0,0-2.19,1.55c0-.13.81-.06.36-.1a4.76,4.76,0,0,0-.75.07l-7.44.73-23.65,2.3-8.73.85a7.06,7.06,0,0,0-2,.19c-.35.18.27,0,.35.15-.06-.14-.7-.3-.84-.36l-19.06-8.16.55,1q-.39-9.93-.79-19.86l-1.11,1.11,16.14-.32-1-.55,8.12,14.86V192L529,219.39c-.77,1.32-1.55,2.63-2.32,3.94l1.25-.51-30-9.95-4.3-1.42.82,1.07q1.47-19.11,2.95-38.22l.42-5.45c-.11.26-.21.53-.32.79l31.07-26.42,4.41-3.75-1.08.28L549.69,143l-.77-.78,2.91,16.5,1.07-1.41-18.71-1.42,1.07.81-3.18-20.56L532,137q9.72-13.29,19.43-26.57c.91-1.26,1.83-2.51,2.74-3.76l-.66.51,11.2-2.9-1.08-.28q3.25,4.15,6.5,8.33c.08-.58.15-1.17.23-1.75l-7.92,5.28.85-.12-4.85-1.57-3.33-1.09-1.1-.35c-.25-.08-.54-.28-.15,0-3.2-2.08-6.15-4.67-9.18-7l-3.74-2.84.51,1.25q2.52-11.37,5.06-22.74l-1.07.82L589,86l6.19.53-.78-.32,20.44,25,2.87,3.51c-.1-.26-.21-.52-.32-.78q-.17,7.35-.31,14.71l.81-1.07-11.36,3.88c-.27.09-.55.17-.82.28s-.06.05,0,0c-.42,0-.86,0-1.28,0l-6.34,0c-4.43,0-8.86,0-13.29.08a3.64,3.64,0,0,0-2.09.82l-5.3,3.45-11,7.13a1.14,1.14,0,0,0-.39,1.52l7.59,17c.46,1,2.08.48,2.07-.56l0-2.54a1.12,1.12,0,0,0-1.11-1.11l-16.3,1.62-8.15.8c-1.31.13-2,.88-3,1.72l-15.33,12.92-2.57,2.17c-.19.16-.37.34-.57.48s.36-.2,0,0c-2,.9-4,1.85-6,2.78l-17.28,8,1.35.17L480,163.68l-3.75-3.43.32.78.51-36.33.08-5.16-.33.79L487,108.21l-1.35.17,15,10.28-.55-1q-1.95,15.31-3.91,30.62c-.08.66-.17,1.32-.25,2s.14-.25-.09.26c-.71,1.57-1.17,3.31-1.75,4.94l-6.53,18.39c-.81,2.3-1.63,4.59-2.44,6.88-.33.91-.71,1.56-.3,2.49,1.53,3.46,3.55,6.78,5.3,10.13L507,225.67a19.16,19.16,0,0,0,1.31,2.5,5.6,5.6,0,0,0,1.82,1.2l4,2.21,4,2.2c.63.35,1.14.75,1.88.57a23.55,23.55,0,0,0,3.12-1.29l4.61-1.9,2.38-1c.59-.24,1.13-1,.66-1.63l-8.38-11.44a1.12,1.12,0,0,0-1.74-.22q-5.8,5.37-11.59,10.76a1.15,1.15,0,0,0-.18,1.35q3.65,7.49,7.3,15l3.71,7.62c.28.58.44,1.09,1.08,1.34a8.39,8.39,0,0,0,1.65.29l20.13,3.54c1.7.3,3.46.76,5.18.91a5.4,5.4,0,0,0,2.29-.64l4.46-1.68,9.46-3.55c.75-.28,1.45-.42,1.84-1.18a15.63,15.63,0,0,0,.55-1.49q3.54-9.5,7.06-19c.81-2.17,1.85-4.37,2.46-6.61.17-.63,0,.21-.18.2.09,0,.41-.37.46-.42l2.49-2.28,8-7.37,3.73-3.42a19.13,19.13,0,0,0,2.1-1.92c.39-.46-.07.27-.24.09a3.75,3.75,0,0,0,.69-.19l3.46-1L607,204.36c2.53-.7,5.12-1.29,7.61-2.11.24-.08.59-.1.11-.07.45,0,.91,0,1.37,0l5.49-.09,3.14,0-1.07-.82,5.94,20.71.51-1.26L591.9,241.13,586.54,244l1.34.18-22.32-24.79q-5.37-6-10.73-11.9c-.07-.08-.59-.79-.7-.78.46-.06.26.81.22.24a5.09,5.09,0,0,0-.24-.93c-.7-2.77-1.4-5.55-2.11-8.32q-2.31-9.12-4.63-18.25a1.16,1.16,0,0,0-1.07-.82l-24.73-3.28a31.35,31.35,0,0,0-4.84-.26l-13.21.21-16.35.27c-3.35.06-6.73,0-10.08.17-.3,0-.6-.1-.17,0-.43-.14-.86-.34-1.28-.51l-6.39-2.5-7.41-2.91a24.41,24.41,0,0,0-3.55-1.39,15.26,15.26,0,0,0-3.31,0H432.93a1.11,1.11,0,0,0,0,2.22h24.33c.3,0,1,.13.46,0,.43.13.86.33,1.28.5l6.39,2.5,7.41,2.91a24.46,24.46,0,0,0,3.55,1.4,10,10,0,0,0,2.19,0l5.21-.09,15.68-.26,14.85-.24a41.46,41.46,0,0,1,5.46,0c8.61,1,17.2,2.28,25.79,3.42l.77.11-1.07-.82,4,15.73,2.41,9.49a8.17,8.17,0,0,0,1.09,3.2c2.86,3.57,6.18,6.86,9.24,10.25l15,16.7,9.31,10.34a1.13,1.13,0,0,0,1.35.17l38.21-20.48,5.36-2.87a1.12,1.12,0,0,0,.51-1.25l-5.94-20.71a1.13,1.13,0,0,0-1.07-.81l-9.38.15a22.43,22.43,0,0,0-5.38,1.28l-11.59,3.22a51.78,51.78,0,0,0-6.64,1.85,7.38,7.38,0,0,0-1.81,1.5L586.45,211l-8.91,8.17c-1.18,1.08-3,2.23-3.67,3.74-1,2.38-1.81,4.87-2.71,7.28l-7.39,19.88.78-.78c-1.58.59-16.74,6-16.67,6.26,0-.12,1,.12.18-.06-.46-.11-.94-.17-1.41-.25l-4.59-.81-12.61-2.21-8-1.4.66.51q-5-10.24-10-20.5l-1.44-2.94-.17,1.34,11.59-10.76-1.75-.23q4.2,5.72,8.38,11.44c.22-.54.44-1.09.67-1.63l-10.22,4.21.85.12-5.39-3-3.55-2a10.44,10.44,0,0,0-1-.58c-.62-.25.2,0,.1.22.12-.23-1-1.91-1.11-2.12q-1.32-2.5-2.62-5l-15.6-29.81-4.27-8.16.11.85,9.84-27.72c.48-1.34,1.09-2.7,1.45-4.08a20.42,20.42,0,0,0,.36-2.59q1.06-8.44,2.15-16.88.87-6.92,1.76-13.82a1.1,1.1,0,0,0-.55-1l-15-10.28a1.12,1.12,0,0,0-1.35.18l-6.92,8.28c-1,1.23-2.14,2.42-3.1,3.7a2.28,2.28,0,0,0-.44,1.6l-.33,22.86-.18,12.9-.05,3.8a3,3,0,0,0,.31,2,9.44,9.44,0,0,0,1.19,1.09l3,2.76,9.74,8.92,16.56,15.17a1.15,1.15,0,0,0,1.34.17l20.77-9.61a24.71,24.71,0,0,0,2.66-1.23,17.37,17.37,0,0,0,1.87-1.56l10.33-8.71,8.16-6.88-.78.33,25.07-2.49-1.11-1.11c0,.85,0,1.69,0,2.54l2.07-.56-7.6-17-.39,1.52,9.25-6,5.9-3.84c.58-.38,1.22-.72,1.76-1.15,0,0,.34-.18.33-.21,0,.16-.76,0-.37.13a6.59,6.59,0,0,0,1.66,0l2.89,0,7.79-.05,6.89,0a10.51,10.51,0,0,0,2.57-.12c2.27-.57,4.5-1.53,6.71-2.28l5.51-1.89a1.14,1.14,0,0,0,.82-1.07l.24-11.15c0-1.13.41-2.91,0-4a7.59,7.59,0,0,0-1.29-1.64l-16.35-20c-1.89-2.31-3.69-4.75-5.7-7-.85-.94-2.75-.74-3.93-.84l-25.63-2.23-13.45-1.17c-2.47-.21-5-.55-7.43-.64l-.35,0a1.13,1.13,0,0,0-1.08.81q-2.52,11.37-5.05,22.74a1.17,1.17,0,0,0,.51,1.26c4.14,3.15,8.24,6.4,12.45,9.46,1.54,1.13,3.79,1.47,5.58,2.05l4.23,1.38a2,2,0,0,0,2-.25l7.42-4.94a1.13,1.13,0,0,0,.22-1.74q-3.24-4.17-6.5-8.33a1.08,1.08,0,0,0-1.08-.29L556.79,104c-1.44.37-3.74.48-4.72,1.71-2.85,3.57-5.41,7.4-8.1,11.08l-11.3,15.47a31,31,0,0,0-2.56,3.5c-.55,1,.15,3.06.32,4.16q1.35,8.67,2.69,17.34a1.13,1.13,0,0,0,1.07.82l18.71,1.42a1.12,1.12,0,0,0,1.07-1.4l-2.91-16.5a1.08,1.08,0,0,0-.78-.78L539,138.78l-5.8-1.05a2.14,2.14,0,0,0-2,.41c-6.13,5.11-12.16,10.34-18.24,15.51l-11.24,9.56-3.83,3.25A19.1,19.1,0,0,0,496,168a2.48,2.48,0,0,0-.45,1.66l-.31,3.93q-.52,6.93-1.07,13.85c-.63,8.19-1.48,16.4-1.9,24.61l0,.46a1.11,1.11,0,0,0,.81,1.07l30,9.95,4.29,1.42a1.12,1.12,0,0,0,1.26-.51L540,205.12l6.23-10.57c.34-.58,1.07-1.44,1-2.16-.14-1.16-1.31-2.56-1.85-3.56L539,177.11a1.13,1.13,0,0,0-1-.55l-16.14.33A1.13,1.13,0,0,0,520.8,178q.39,9.93.79,19.86a1.1,1.1,0,0,0,.55,1l9.7,4.15c3.38,1.45,6.74,3.16,10.21,4.38a4.16,4.16,0,0,0,1.86,0l4.31-.42,13.95-1.36,15-1.46c2.7-.27,5.48-.39,8.17-.8a3.93,3.93,0,0,0,1.81-.93l5-3.55L603,191.19a2.22,2.22,0,0,0,1.23-2c.06-1.8.06-3.6.09-5.39l.21-13.59v-1a1.13,1.13,0,0,0-.81-1.07l-13.5-4.75a6.75,6.75,0,0,0-1.68-.55c-.66,0-1.14.43-1.66.78L580,168.43l-5.61,3.88a1.12,1.12,0,0,0-.55,1q1.64,14.65,3.28,29.3l.48,4.23a1.15,1.15,0,0,0,.81,1.07l32.54,8a8.4,8.4,0,0,0,1.1.27c.77.1,1.15-.35,1.67-.8l5.33-4.69,16.15-14.2a52.33,52.33,0,0,0,4.34-3.81c.72-.79.65-2.1.79-3.12q1.44-10.09,2.87-20.2c.45-3.13.89-6.27,1.34-9.41.17-1.19.81-3.12.38-4.3a21.28,21.28,0,0,0-1.52-2.71l-3.76-6.77q-9.84-17.64-19.67-35.3a19.11,19.11,0,0,0-1.44-2.58c-.56-.7-1.78-.65-2.62-.75l-13.32-1.6-43.51-5.22-16.69-2c-1.93-.23-4.13-1-5.92-.06-10.46,5.26-21.1,10.27-31.41,15.81-1,.53-1.14,1.45-1.51,2.44-1,2.62-1.91,5.23-2.87,7.84q-3.65,9.9-7.28,19.81L492,148.38a1.13,1.13,0,0,0,.52,1.25L515.93,167l3.28,2.42a1.12,1.12,0,0,0,1.35-.17l10.83-10,6.15-5.66c.9-.82,1.53-1.27,1.59-2.53l.81-17.35q.16-3.5.32-7c.06-1.26-.7-2.08-1.37-3.12q-4.73-7.35-9.46-14.71a1.17,1.17,0,0,0-1.25-.51l-7.72,1.13-4.61.67a2.92,2.92,0,0,0-1.59.48,25,25,0,0,0-2.06,2.18l-4.69,5-28.62,30.36-8.69,9.22a2.24,2.24,0,0,0-.79,1.68c0,1.35.12,2.7.18,4l1.77,39.63.75,16.95c.06,1.22,0,2.47.17,3.68.11,1,.65,1.26,1.37,1.82l29.55,23.48,5.37,4.26c.74.59,1.51,1.48,2.51,1.28a42.42,42.42,0,0,0,4.54-1.52l9-3,19.71-6.57c2.31-.77,4.59-1.61,7-2.21l36.24-9.29L601,228.14a1.36,1.36,0,0,0,.45-.12c.33-.22-.35.18-.41,0,.08.25,2.07.69,2.31.77l9.79,3.3,5.85,2-.81-1.07q-.63,6.72-1.24,13.43c.1-.26.21-.52.32-.78L612.08,250a62.84,62.84,0,0,1-5.62,4.71c.54-.35-.54.19-.71.27l-2.57,1.19L595,260l-15.41,7.16a5.67,5.67,0,0,0-.61.28c-.51.32.29-.35.33-.05,0,0-1.5,0-1.57,0l-8.11.15-16.72.3,1.07.81q-3.9-12.21-7.79-24.42c-.38-1.16-.75-2.33-1.12-3.5-.1.36-.19.72-.29,1.08l19.06-21.87L574,208.23c.36-.42.77-.83,1.11-1.27s.19-.25.08-.16c.85-.74,1.84-1.36,2.74-2l28.7-21.27,5.06-3.75c.78-.58,1.91-1.14,2.13-2.13s.22-1.94.33-2.88l.84-7.17,3.85-33.1c0-.24,0-.48.08-.72a1.06,1.06,0,0,0-.55-1l-24.29-10.36c-.89-.38-1.72-.93-2.66-.51-1.34.59-2.64,1.36-3.94,2l-14.92,7.73-5.34,2.76a2.59,2.59,0,0,0-1.56,1.53c-1.5,4-2.93,8-4.4,12.05l-5.47,15a16.35,16.35,0,0,0-1,2.69c-.17,1,1,2.23,1.44,3,5,8.11,9.91,16.31,15.06,24.34a2.14,2.14,0,0,0,1.9,1l6.08.82,16.49,2.22c1.17.16,2.37.4,3.55.48,1,.06,1.7-.7,2.47-1.22l11.87-8.17,13.53-9.32c1.22-.83,2.48-1.63,3.66-2.51.22-.17.63-.34.18-.18.44-.15.92-.22,1.37-.33l15.26-3.6,6.23-1.47c.19,0,1.34-.25.65-.18.3,0,.6,0,.9,0l29.46-1.06,2.79-.1c1.43-.05,1.43-2.27,0-2.22Z" transform="translate(-129.97 -79.96)"/><rect class="a" x="294.82" y="82.63" width="13.89" height="13.89"/><polygon class="a" points="543.13 96.52 543.13 82.63 557.02 89.57 543.13 96.52"/><path class="a" d="M1568.26,172h-63.39c-.43,0,.34.08,0,0-2.54-.51-5.06-1.19-7.58-1.79l-34.33-8.1-16.47-3.89-5.72-1.35a31.14,31.14,0,0,0-3.14-.75,2.71,2.71,0,0,1-.41-.09l.78.77q-4-16-8.06-32l-1.14-4.52c-.1.36-.19.72-.29,1.08l29.72-23.55,4.22-3.34-1.08.29,36.7,7,5.25,1-.78-.78,11.5,33.3,1.64,4.74c.09-.36.19-.72.28-1.08l-20.31,21q-6.32,6.52-12.62,13c-1,1.06-2.09,2.09-3.08,3.18-.18.2-.51.45-.12.18-.22.15-.46.28-.69.42l-27.42,16.69c-8.59,5.24-17.36,10.27-25.82,15.72a7.59,7.59,0,0,0-1.57,1.58l-5.3,6.11-11.63,13.44-.79.91a1.15,1.15,0,0,0-.17,1.35l7.48,12.93c1.06,1.84,2,3.82,3.22,5.57.7,1,2.43,1.1,3.54,1.38l17.4,4.45a5.91,5.91,0,0,0,2.45.35c1-.15,2-.43,2.92-.64l32-7.08,34.12-7.56,4-.89a3,3,0,0,0,1.68-.69,69.66,69.66,0,0,0,4.62-5.36l6-7,1.06-1.23a1.13,1.13,0,0,0,.17-1.35l-3.69-6.32-2.25-3.85c-.39-.67-.66-1.37-1.38-1.71a57.15,57.15,0,0,0-6.91-2.31l-4.36-1.46a11.21,11.21,0,0,0-2-.62c-2.32-.3-4.8-.15-7.13-.23l-16.94-.54-39.17-1.25c-5.65-.18-11.3-.36-17-.44l-34.51-.55H1391l.79.33-19.54-21.06-2.76-3,.33.79,1.92-28.89.27-4.1-.55,1,31.36-21.07,4.4-3-1.34-.17,28.2,26.13,4,3.69c.07-.59.15-1.17.22-1.75l-17.46,8.9L1393,178.27l-6.43,3.28.85-.12-29.78-6.52c-4.26-.94-8.51-1.95-12.78-2.81a13.26,13.26,0,0,0-2.6-.11h-25a1.11,1.11,0,0,0,0,2.22h12.12c4.79,0,9.69.3,14.47,0,.61,0-.23-.09.19,0l1.26.27,5.43,1.19,17.18,3.77,15.47,3.39c1.09.24,2.19.58,3.29.72a2.9,2.9,0,0,0,1.86-.54l25.9-13.2c8.16-4.16,16.46-8.13,24.51-12.5l.44-.22a1.12,1.12,0,0,0,.23-1.75l-28.2-26.12-4-3.69a1.13,1.13,0,0,0-1.35-.17l-20.2,13.57-12.34,8.29c-1,.67-2,1.31-3,2a2.08,2.08,0,0,0-.86,1.88q-1,14.37-1.91,28.73a26.5,26.5,0,0,0-.23,3.44c.07.83.86,1.43,1.39,2l9.78,10.54,10.08,10.87c.6.64,1.24,1.66,2.16,1.79a18.84,18.84,0,0,0,2.49,0l30.75.49c4.38.06,8.75.14,13.12.28l29,.93,31.62,1c2.63.09,5.26.19,7.89.25.18,0,.37,0,.55,0-.58-.07.34.16.6.25l7.29,2.44,4.85,1.62-.66-.51q3.32,5.69,6.65,11.37l.17-1.34-8.1,9.38-2.31,2.68c-.35.4-1.12,1-1.31,1.52-.14.35.56-.07.22-.11a2.31,2.31,0,0,0-.68.15l-21.28,4.71-32.21,7.14-12.85,2.84c-2.23.5-4.56.85-6.75,1.5a3.33,3.33,0,0,0-.39.08c0-.22.83.2.41,0a3.14,3.14,0,0,0-.67-.17l-5.85-1.49-14.13-3.62-1-.24.66.51q-5.4-9.33-10.79-18.67l-.18,1.35,9.19-10.62c3.17-3.66,6.2-7.55,9.56-11-.3.31-.08.06.18-.09.44-.25.87-.53,1.3-.79l4.89-3,15.53-9.45,30.07-18.31a17.84,17.84,0,0,0,3.86-3l10.84-11.21q11.73-12.12,23.45-24.25l.48-.49a1.09,1.09,0,0,0,.29-1.08l-11.5-33.3q-.81-2.37-1.64-4.74a1.09,1.09,0,0,0-.77-.77l-37.29-7.13c-1.53-.29-3.1-.74-4.65-.88-1.25-.12-2.76,1.59-3.65,2.31l-17.41,13.79-14,11.07a1.1,1.1,0,0,0-.28,1.08q4,16,8.06,32c.37,1.51.75,3,1.13,4.52a1.12,1.12,0,0,0,.78.77l21.33,5,35.67,8.42,9.92,2.34a17.45,17.45,0,0,0,4.09.24h32.65c9.16,0,18.34.2,27.49,0,.15,0,.3,0,.45,0a1.11,1.11,0,0,0,0-2.22Z" transform="translate(-129.97 -79.96)"/><rect class="a" x="1183.04" y="86.19" width="13.89" height="13.89"/><polygon class="a" points="1431.34 100.08 1431.34 86.19 1445.24 93.14 1431.34 100.08"/><path class="a" d="M390.15,174.32l-17.94,2-28.45,3.11-6.58.72.78.32-13-15.17c.09.36.19.72.28,1.08l5.89-19.08-.77.78,16.43-4.39-1.26-.51q5.06,9.75,10.1,19.5v-1.12l-9.17,13.3a54.45,54.45,0,0,0-4,5.75c-.25.48,0-.26.23-.18-.08,0-.54.34-.61.38l-2.71,1.71-15.93,10c-2.23,1.41-3.92,3.64-5.73,5.53q-13.53,14.1-27.05,28.22c-4.92,5.13-10,10.12-15,15.15q-12.58,12.54-25.15,25.1L250,267l1.08-.28-40-10.13-5.75-1.46.78.78q-4.47-20.55-8.92-41.1-.63-2.85-1.24-5.7c-.1.36-.19.72-.29,1.08l28.56-31.51,4-4.43-.78.32,25,0-1-.56L260,189.71l1.34,2.49c.16.3-.1-.26,0-.09s.12.32.18.49c.62,1.76,1.27,3.52,1.9,5.28L277.12,236c.36,1,.63,2.52,1.45,3.26a26,26,0,0,0,2.86,2l16.51,11.48,16.66,11.58a24.92,24.92,0,0,0,3.19,2.22,2.49,2.49,0,0,0,1.83-.15l3.92-1.09,10.85-3,3.68-1c.71-.2,1.18-.31,1.52-1.06,1-2.32,1.72-4.86,2.56-7.25q1.75-4.92,3.49-9.85l.67-1.88a1.12,1.12,0,0,0-.51-1.25l-13.73-7.88-9-5.15c-1.08-.62-2.78-2.09-4.1-2s-2.42.48-3.6.71l-8.54,1.71-22,4.38-9.18,1.84a45.33,45.33,0,0,0-4.91,1c-.62.2.33.15.18,0a3.49,3.49,0,0,0-1-.27l-4.69-1.25-39.59-10.51-20-5.32c-3.61-1-7.24-2.15-10.9-2.89l-.53-.14.67.51-17.68-26c-.84-1.24-1.69-2.48-2.53-3.73l.11.86L180.58,165l4.14-14.76c.47-1.66.93-3.32,1.4-5a11.62,11.62,0,0,0,.63-2.23c.35.3-.64.59-.05.27a5.44,5.44,0,0,0,.84-.68l3.22-2.58,10.73-8.62,22.41-18c.78-.63,1.61-1.23,2.36-1.9.57-.5-.08.17-.18,0a5.75,5.75,0,0,0,1.42-.28l13.82-2.7,1.19-.24-1.08-.28,11.21,11-.18-1.35-7.18,10.8,1-.55-13.45,1.12.78.32-15.76-15.64v1.57l8.49-9.74,2.51-2.87a11.83,11.83,0,0,0,1.44-1.65c.31-.54-.64.15-.08,0s.86-.35,1.28-.52l28.21-11.5,4.39-1.79c.1-.05.87-.37.54-.26s.5-.06.64-.07l13.34-1.52,15.77-1.79a15.79,15.79,0,0,0,3-.34c-.05.14-.8-.35-.4-.09a3.14,3.14,0,0,0,.53.23l1.9.82,26.77,11.51.69.3-.51-.67,9.21,26.46c.44,1.25.88,2.51,1.31,3.77.1-.36.19-.72.29-1.08L317.6,143.36l-2.8,2.7h1.57l-20.28-16.52-2.88-2.35c-.65-.52-2-.27-1.89.79l2.12,18.48,1.07,9.34c0,.3.07.61.1.91s.1-.38,0,0c-.17.82-.44,1.63-.65,2.44l-5.91,22c-.4,1.47-1.34,3.43-1.14,5,.31,2.41,1.06,4.84,1.58,7.21l4.55,20.88a1.12,1.12,0,0,0,.78.78L309,219.43l10.54,3.11a44.7,44.7,0,0,0,5.41,1.6c1.3.21,2.95-.36,4.22-.57l10.13-1.65,11.12-1.82c2.11-.35,4.37-.51,6.45-1.06a6,6,0,0,0,1.53-.79l4.68-2.87,8-4.9a1.15,1.15,0,0,0,.51-1.25q-2.26-9.45-4.52-18.9a1.09,1.09,0,0,0-.77-.78l-18.68-4.61a6,6,0,0,0-2.05-.34c-.93.09-1.87.34-2.79.5L331,187.24l-4.81.87a7,7,0,0,0-1.2.22c-.46.19.58.16.32,0a6.78,6.78,0,0,0-1.7-.26l-3.52-.53L296.58,184l-17.47-2.66.67.52-24.69-32.06-3.5-4.53c0,.28.08.57.11.85q6-19,11.89-38c.57-1.8,1.13-3.6,1.7-5.41l-.78.78,13.67-5.32-1.25-.51L289,114v-1.12L269.91,143.9l-2.75,4.47,1-.55-30.26,3.81q-11.94,1.5-23.84,3.21l-16.23,2.35a1.12,1.12,0,0,0-.82,1.07q-.14,7.88-.26,15.76l-.06,3.48a2.22,2.22,0,0,0,.33,1.63,45.27,45.27,0,0,0,4.42,4.11c3.72,3.45,7.33,7.08,11.18,10.39,3.51,3,7.27,5.77,10.9,8.64l12.75,10.12-.33-.79q-1.36,12.3-2.74,24.61l1.12-1.11-20.4.1.79.33q-7.3-7.78-14.6-15.56L176.67,195l-5.35-5.71c.09.36.19.72.28,1.08q1.16-7.28,2.29-14.57l-1.07.81,12,.59-.79-.33,21.07,27,4.57,5.84a12.83,12.83,0,0,0,1.06,1.37c.25.23-.18-.76-.07.1.27,2.11.92,4.23,1.38,6.3q1.14,5.22,2.27,10.44l3.63,16.6a1.09,1.09,0,0,0,.77.78l34,6.79c1.54.31,3.12.76,4.69.94a1.92,1.92,0,0,0,1.48-.47l3.23-2.11,9.11-6c1.14-.75,3.55-1.71,3.92-3.15.83-3.23,1.11-6.7,1.65-10q.69-4.12,1.36-8.23a1.15,1.15,0,0,0-.77-1.37l-16.34-6.66a1.12,1.12,0,0,0-1.26.51q-3.3,6.93-6.62,13.84c-.33.7-.75,1.3-.45,2.08a11.18,11.18,0,0,0,.71,1.27l4,7.13,4.93,8.78a56.26,56.26,0,0,0,2.86,5.09c.67.94,2.35,1.13,3.4,1.45L277.5,258l9.18,2.84,3.15,1a5,5,0,0,0,1.41.39,3.9,3.9,0,0,0,1.37-.53l2.64-1.21,8.42-3.87,9-4.16A53.53,53.53,0,0,0,318,250c1.06-.65.92-2.39,1.06-3.52l1.08-9.27,1-8.77a4.17,4.17,0,0,0-.53-3.07l-8.56-15.47-.75-1.35a1.13,1.13,0,0,0-1-.55l-19.18-.33a1.11,1.11,0,0,0-1.11,1.11q1.11,8.6,2.23,17.2a1.14,1.14,0,0,0,1.11,1.11l5.13,0a29.77,29.77,0,0,0,4.33-.06c3.88-.58,7.73-1.63,11.57-2.43a20.85,20.85,0,0,0,3.66-.83c.78-.33,1.52-.82,2.27-1.23l12-6.48,9.13-4.93a1.13,1.13,0,0,0,.51-1.25q-2.22-10.58-4.43-21.15c-.68-3.21-1.28-6.44-2-9.64-.38-1.61-2.73-2-4.1-2.6l-24.31-10.38c-4.41-1.88-8.89-3.41-13.41-5l-13.58-4.74c-3-1.06-6.07-2.31-9.16-3.19l-.47-.17.66.51-11.3-26c-.54-1.24-1.08-2.48-1.61-3.72l-.18,1.35,7.08-7.66,4.72-5.11c.46-.5,1-1,1.39-1.5.05-.06.33-.28.32-.35s-.57.12-.33.21,1.11-.24,1.39-.3l2.64-.57,7.26-1.57,6.42-1.39c.59-.13,1.24-.2,1.82-.39s-.73-.2.05,0c4,1,8.24,1.47,12.32,2.2l-.77-.78,3.93,11.17.78-1.37-10.69,1.84,1.41,1.07q-.62-5.58-1.24-11.16l-1.11,1.11,18-1.69c.41,0,2.54.06,2.81-.26.06-.07-.66-.37-.34-.09a4.11,4.11,0,0,0,.76.37l7.54,3.73,18.57,9.17a7.56,7.56,0,0,0,.9.45c.67.23-.19.07-.08-.24-.08.23.66,1.27.77,1.47q2.17,4.16,4.36,8.29L357.91,149l.17-1.34-16.52,18.95c-.8.91-1.59,1.83-2.39,2.75l1.34-.18-10.81-5.74c.07.58.15,1.16.22,1.74l6.9-7.59-1.89-.78-1,10.52,1.11-1.11-7.91.38c-1.38.06-2.77.08-4.15.19-.15,0-1,0-.3.07-.13,0-.26,0-.38-.07-5.39-1.15-10.82-2.1-16.22-3.15s-10.82-2.17-16.25-3.15a32.73,32.73,0,0,0-4.75-.25l-9.74-.33c-.79,0-1.35-.08-1.92.56-1,1.08-1.78,2.3-2.66,3.43l-5.52,7.13a1.14,1.14,0,0,0-.18,1.34c1.71,2.58,3.24,5.47,5.2,7.86a4.59,4.59,0,0,0,2.05,1.07l4.45,1.75,12.13,4.76,4.56,1.79a4.32,4.32,0,0,0,2.11.58,40.81,40.81,0,0,0,5.17-1.42l4.9-1.35a1.15,1.15,0,0,0,.82-1.08q-.24-4.59-.47-9.19a1.12,1.12,0,0,0-1.67-1L299.5,179c-1.16.67-3.82,1.56-4.1,3-.67,3.54-.78,7.27-1.16,10.86l.33-.79L280.3,207.28l1.08-.28-19.24-8,.82,1.07-1.11-12.61-.82,1.07,11.31-2.41L271,184.74q-.83,5.89-1.67,11.77l.78-.77-13,2.24.85.12q-12.34-7.29-24.71-14.56c-1.16-.69-2.32-1.38-3.49-2.06l.51.66q-2.32-5.5-4.64-11l-.12.85,5.8-9.76-1.26.51,10.12,2.61-.66-.51,6.17,9,1.25-1.63-23.15-9.64-3.35-1.4.77.78q-4.24-11.37-8.5-22.75l-1.2-3.21c0,.29-.07.57-.11.86l6.43-9-1.26.51,9.5,3.58-.66-1.63-4,7.89,1-.55-6.54.68a19.21,19.21,0,0,0-2.78.28c.14-.56.67.48.36.06a2.66,2.66,0,0,0-.65-.44l-12.9-8.69-4.31-2.91c.14.51.27,1,.4,1.52q4.77-8.4,9.53-16.79l-1.74.22q6,7.25,12,14.47l-.17-1.35-10.08,16.64q-1.26,2.09-2.53,4.16c-.16.27-1.13,1.45-1.06,1.77-.05-.21.72-.63-.13,0l-1.56,1.13-4.71,3.41-8.23,6a1.12,1.12,0,0,0-.4,1.52l6.88,9.76c.65.93,1.4,2.56,2.48,3.06,1.66.76,3.49,1.25,5.21,1.86l5.79,2.08a1.11,1.11,0,0,0,1.25-.51l4.62-8.64h-1.92l8.18,18.35c.34.77.52,1.56,1.31,1.93a18,18,0,0,0,2.47.74l11.77,3.55,8.93,2.69-.66-.51,12.95,18.07.17-1.35-13.3,11.14,1.08-.29L232.46,219l-8.23-1.56-2.83-.54a6.1,6.1,0,0,0-1.32-.25c.09-.11.49.52.36.19-.05-.13-.3-.29-.4-.39l-1.52-1.48-5.24-5.13-11.55-11.28a26.24,26.24,0,0,0-4.34-3.54l-12.1-7.78-14.12-9.07-4.52-2.91a4.12,4.12,0,0,0-1.86-.89c-1.42-.14-2.92,0-4.34,0H136.92a1.11,1.11,0,0,0,0,2.22h26.44a7.92,7.92,0,0,0,1.54,0c-.07.16-.88-.38,0,.18l1.78,1.15,6.26,4,16.75,10.77,6.19,4,1.85,1.19c.19.12.74.57.32.18,3.46,3.12,6.69,6.54,10,9.8l6.83,6.68c1.29,1.26,2.53,2.67,3.92,3.82.85.71,2.19.72,3.25.92l8.79,1.67,9.25,1.76c1.2.23,3.3,1.06,4.41.34a53.46,53.46,0,0,0,4.85-4.06l7.15-6,1.29-1.08a1.12,1.12,0,0,0,.18-1.35L246.11,194c-.48-.68-1-1.65-1.74-2a15.26,15.26,0,0,0-2.3-.7l-11.68-3.51-9.2-2.78.66.51q-4.41-9.87-8.81-19.76a1.12,1.12,0,0,0-1.92,0l-4.62,8.64,1.26-.51-11-4,.66.51-8.66-12.29c-.13.5-.27,1-.4,1.52l7-5.09c2.62-1.9,5.42-3.67,7.92-5.73a4.82,4.82,0,0,0,1-1.35c.76-1.24,1.51-2.49,2.26-3.73L213,133.09l4.44-7.32a1.14,1.14,0,0,0-.18-1.34q-6-7.25-11.95-14.47a1.13,1.13,0,0,0-1.75.23Q198.8,118.59,194,127a1.14,1.14,0,0,0,.4,1.52l15.1,10.18c.88.59,1.74,1.23,2.64,1.78a2.59,2.59,0,0,0,1.88.22l5.63-.58c.88-.09,2.77.06,3.48-.6a4.16,4.16,0,0,0,.67-1.22l1.43-2.82q1-2,2.06-4.08a1.13,1.13,0,0,0-.67-1.63l-9.5-3.58a1.13,1.13,0,0,0-1.25.51l-4.21,5.93c-.79,1.11-2.64,2.78-2.23,4.25.52,1.86,1.38,3.68,2.06,5.49l3.36,9c1,2.72,2,5.44,3,8.17.43,1.14.78,3.17,1.91,3.8s2.58,1.07,3.84,1.6l8.32,3.46,14.34,6c.89.37,1.78-.87,1.26-1.63l-3.09-4.5a46.56,46.56,0,0,0-3.08-4.51,3,3,0,0,0-1.79-.8l-3.51-.9-5.49-1.42a1.13,1.13,0,0,0-1.25.51l-3.86,6.5c-.59,1-1.3,2-1.81,3.06a1.77,1.77,0,0,0,.07,1.78q1.77,4.2,3.55,8.42a9.62,9.62,0,0,0,1,2.25,3.7,3.7,0,0,0,1.05.72l14.13,8.33,8.34,4.91c1.57.93,3.12,2,4.75,2.8a2.36,2.36,0,0,0,1.55.18l4.17-.72,8.36-1.45a1.07,1.07,0,0,0,.78-.78q.82-5.88,1.67-11.76a1.13,1.13,0,0,0-1.37-1.37l-11.31,2.41a1.1,1.1,0,0,0-.81,1.07l1.11,12.61a1.17,1.17,0,0,0,.81,1.07l19.24,8a1.08,1.08,0,0,0,1.08-.29l9.42-10c1.51-1.6,3-3.18,4.52-4.81,1-1.08.83-2.78,1-4.17.28-2.62.56-5.23.83-7.85l-.55,1,8.37-4.83-1.67-1c.15,3.07.31,6.13.46,9.19l.82-1.07-7.64,2.11-1.75.48a2,2,0,0,0-.48.14c-.52.35.35-.77.37.05a8.52,8.52,0,0,0-1.43-.56L277,180.79l-5.47-2.14.66.51q-2.59-3.94-5.21-7.89l-.17,1.35,8.38-10.82-.78.32,13.41.46,1,0c.26,0,.52,0,.08,0,.32,0,.64.13,1,.19l5.36,1L311.87,167c3.37.65,6.8,1.57,10.21,2a37.24,37.24,0,0,0,6.06-.23l6.91-.32a1.16,1.16,0,0,0,1.11-1.12l1-10.52a1.12,1.12,0,0,0-1.9-.79l-6.9,7.59a1.13,1.13,0,0,0,.23,1.75l10.81,5.74a1.15,1.15,0,0,0,1.35-.17Q349,161.47,357.26,152l2.39-2.75a1.17,1.17,0,0,0,.18-1.35L352,133q-2.48-4.71-5-9.43c-.54-1-1-2.55-2-3.17-2.06-1.23-4.37-2.16-6.52-3.22l-10.61-5.25L319,107.52c-1.24-.61-2.08-1.18-3.47-1l-20,1.87c-.55,0-1.18.47-1.11,1.11q.62,5.58,1.24,11.16a1.13,1.13,0,0,0,1.4,1.07l10.69-1.83a1.12,1.12,0,0,0,.77-1.37l-3.93-11.17a1.12,1.12,0,0,0-.78-.77l-11.56-2.07c-2.68-.48-5.52.63-8.14,1.2-4.3.93-8.64,1.77-12.92,2.79a3.21,3.21,0,0,0-1.81,1.22l-4.06,4.39-8.75,9.47a1.15,1.15,0,0,0-.17,1.34l8.53,19.66Q267,149.26,269,154c.64,1.48,2.63,1.71,4.05,2.21L298,164.91l3.76,1.32.74.25c-.38-.13-.15-.06.1,0l8.47,3.62,13.36,5.7c2.94,1.25,5.91,2.82,8.95,3.82a4.73,4.73,0,0,1,.47.2l-.51-.67q2.86,13.65,5.72,27.3c.28,1.31.55,2.62.83,3.94l.51-1.26-19.63,10.59c-1.15.62-2.34,1.21-3.48,1.87-.52.31,0,.06-.21.1l-1.68.35L303,224.69l-.7.15c-.3,0,.46,0-.06,0-1,0-1.92,0-2.88,0l-6,0,1.11,1.11-2.23-17.2-1.11,1.11,19.18.33-1-.55,8.91,16.11c.24.43.46.88.72,1.3.49.78-.1-.09.08-.12a17.93,17.93,0,0,0-.27,2.34l-1.32,11.24q-.5,4.2-1,8.4l.55-1-23,10.6-3.36,1.54.86-.11-21.8-6.75-3.14-1,.67.52-11-19.59-1.57-2.8v1.12q3.53-7.4,7.07-14.79l-1.25.51,16.34,6.66-.78-1.37L273,241l.51-.66L257.26,251l.86-.11-34-6.79-4.77-1,.78.77q-1.93-8.88-3.88-17.76l-2.52-11.58c-.33-1.5-.39-3.66-1.27-5s-2.17-2.76-3.24-4.13l-7-9L187.73,178c-.62-.79-1.21-1.64-1.88-2.4A2.28,2.28,0,0,0,184,175l-11.15-.54a1.11,1.11,0,0,0-1.07.82q-.85,5.4-1.7,10.79c-.19,1.25-.5,2.53-.59,3.78-.06.79.3,1.1.77,1.6l13,13.82,19.37,20.64,7.26,7.74a38,38,0,0,0,3.25,3.46c.71.57,1.92.34,2.78.33l7,0,11.37-.06a1.14,1.14,0,0,0,1.11-1.11q.88-8,1.78-16.06c.3-2.64.59-5.28.89-7.92.15-1.36-.72-1.78-1.7-2.56l-15.45-12.26c-2.86-2.26-5.77-4.44-8.44-6.92l-13.93-12.94c.1.26.21.52.32.78l.33-20.07-.81,1.07,24.32-3.52,2-.29c.18,0,1-.14.38-.06l2.17-.27,12.42-1.56,27.26-3.44c.78-.1,1.63-.06,2.17-.71a17,17,0,0,0,1.18-1.92l6.67-10.87c4.56-7.42,9.28-14.78,13.69-22.29l.27-.45a1.07,1.07,0,0,0,0-1.12l-12-16.27a1.14,1.14,0,0,0-1.26-.51l-9.88,3.84a35.21,35.21,0,0,0-3.78,1.47c-.74.4-.82.89-1.05,1.61l-6.66,21.28-6.45,20.6c-.44,1.4.26,2,1.09,3.07l6.12,7.94,16.54,21.48c1.4,1.81,2.74,3.71,4.22,5.47.86,1,2.41.91,3.66,1.1l24.76,3.77,12.5,1.9c2,.3,4,.75,6,.92a7.9,7.9,0,0,0,2-.24l5.62-1,12.3-2.23a6.82,6.82,0,0,0,1.35-.24c.41-.16-.78-.22-.07,0a38.85,38.85,0,0,0,4.13,1l13,3.2,2.67.66-.78-.77q2.26,9.45,4.51,18.9l.52-1.26-6.63,4.06-4.68,2.87a26.09,26.09,0,0,1-2.42,1.48c.57-.26-.64,0-.89.08l-3.25.54-10.47,1.71-10.91,1.78-3.76.62a5.65,5.65,0,0,0-1.85.3c-.21.16.63.21.38,0a2.37,2.37,0,0,0-.7-.21l-3-.88L311.85,218l-17.42-5.15.77.78q-2-9-3.94-18.07l-2-9.19a3.08,3.08,0,0,0-.18-.81c-.16-.24-.22.71,0,.29a11.07,11.07,0,0,0,.69-2.57q3-11,5.92-22a19.17,19.17,0,0,0,1.12-4.52,63.88,63.88,0,0,0-.86-7.52L293.54,128l-1.9.78,20.28,16.52,2.88,2.35a1.14,1.14,0,0,0,1.57,0l19.56-18.83,2.81-2.7A1.11,1.11,0,0,0,339,125q-2.47-7.08-4.93-14.14c-1.83-5.27-3.44-10.7-5.53-15.88-.46-1.15-1.78-1.39-2.86-1.85l-8.45-3.64-17.87-7.68a5,5,0,0,0-2.75-.69l-7.15.81-21,2.38a32.09,32.09,0,0,0-4.38.5,33,33,0,0,0-3.85,1.57L241,94.28l-8.54,3.49a13.91,13.91,0,0,0-3.58,1.55,14.2,14.2,0,0,0-1.48,1.7l-3.1,3.55-6.79,7.79-1.24,1.42a1.14,1.14,0,0,0,0,1.57l15.18,15.07a2.18,2.18,0,0,0,2,.85l5.66-.47,6.25-.52a4.88,4.88,0,0,0,1.21-.12c.56-.2.81-.72,1.11-1.18l6.74-10.12a1.13,1.13,0,0,0-.17-1.35l-5-4.88c-2-2-3.91-4.12-6-5.94-1.2-1-3.67,0-5.06.29l-9.91,1.94c-1.21.24-2.54.27-3.52,1l-3.49,2.8-14.53,11.68L191,137l-4.85,3.89c-.62.5-1.3.89-1.6,1.64a42.16,42.16,0,0,0-1.16,4.13q-1.14,4.09-2.3,8.2-2.82,10.06-5.65,20.15c-.7,2.48-1.39,5-2.09,7.44a11.84,11.84,0,0,0-.83,3.14c0,1.11,1.5,2.55,2.08,3.4l5,7.34,11,16.23a33.8,33.8,0,0,0,2.25,3.31,3.83,3.83,0,0,0,2.13.9l30.7,8.15,37.46,10a60.79,60.79,0,0,0,7.24,1.92,9,9,0,0,0,2.71-.41l6.66-1.33,37.09-7.39,2.71-.55-.86-.11q11.36,6.51,22.7,13l3.23,1.84c-.17-.41-.34-.83-.52-1.25l-6.75,19.06.78-.78-20.12,5.62.85.11-34.41-23.92-4.82-3.36.51.67q-4.9-13.58-9.8-27.16-2.86-8-5.74-15.92a48.46,48.46,0,0,0-2.92-6.64q-4.12-7.68-8.24-15.35a1.11,1.11,0,0,0-1-.55H232.4c-1.56,0-3.2-.15-4.76,0-.83.08-1.13.56-1.65,1.14l-3.09,3.4-10.49,11.57-11.53,12.72c-2.17,2.4-4.48,4.73-6.55,7.23-1.09,1.31.14,4.11.46,5.59L198,228.82c2,9.05,3.72,18.19,5.9,27.2,0,.17.08.34.12.51a1.07,1.07,0,0,0,.77.77l42,10.64c1.16.3,3.74,1.5,4.84.64a43.84,43.84,0,0,0,3.8-3.79l18.42-18.39c7.81-7.8,15.59-15.59,23.22-23.56l19.25-20.09,6.4-6.67c.38-.4.74-.81,1.13-1.19-.26.26-.15.11.12,0,.48-.28.95-.59,1.42-.89l10.85-6.84,5.29-3.33a27.38,27.38,0,0,0,2.35-1.49,9,9,0,0,0,1.51-2c1.1-1.61,2.21-3.21,3.32-4.82l7.46-10.8,1.4-2a1.1,1.1,0,0,0,0-1.12q-5-9.75-10.1-19.5a1.13,1.13,0,0,0-1.25-.51l-11.66,3.11a41.87,41.87,0,0,0-4.71,1.26c-1,.4-1.17,1.85-1.46,2.79L324,162.77c-.28.91-1.25,2.72-.86,3.7s1.64,2,2.33,2.82l9.58,11.19c.56.66,1.19,1.79,2.14,1.84a14,14,0,0,0,2.13-.23l27.1-3c7.76-.85,15.52-1.66,23.28-2.55l.41,0c1.41-.15,1.42-2.38,0-2.22Z" transform="translate(-129.97 -79.96)"/><rect class="a" y="88.52" width="13.89" height="13.89"/><polygon class="a" points="248.3 102.41 248.3 88.52 262.19 95.47 248.3 102.41"/><path class="a" d="M1870,175l-13.89-6.95v5.84H1621.72v-5.84h-13.89V182h13.89v-5.84h2.51c4.12,0,210.3.22,214.44.09v-.08c5.82,0,11.64.1,17.47.07V182Z" transform="translate(-129.97 -79.96)"/></svg>